#N canvas 0 38 1512 834 12;
#X obj 89 199 loadbang;
#X obj 89 235 delay 500;
#X text 85 167 loading a songs.txt file test;
#X msg 89 266 read songs.txt;
#X obj 89 301 text define songs;
#X obj 89 393 text get songs;
#X obj 290 168 receive fromGUI;
#X obj 290 219 list trim;
#X obj 291 243 route /mySlider;
#X obj 292 289 int;
#N canvas 0 0 450 250 (subpatch) 0;
#X array sample_buffer 63744 float 2;
#X coords 0 1 63744 -1 200 129 1;
#X restore 731 162 graph;
#X obj 435 196 soundfiler;
#X msg 435 155 read -resize cello_f2.aif sample_buffer, f 34;
#X obj 89 447 print;
#X obj 315 348 select 1;
#X msg 315 374 bang;
#X obj 317 495 dac~;
#X obj 318 398 tabplay~ sample_buffer;
#X obj 445 437 bng 19 250 50 0 empty empty empty 0 -10 0 12 #fcfcfc #000000 #000000;
#X obj 456 496 counter;
#X connect 0 0 1 0;
#X connect 0 0 12 0;
#X connect 1 0 3 0;
#X connect 3 0 4 0;
#X connect 5 0 13 0;
#X connect 6 0 7 0;
#X connect 7 0 8 0;
#X connect 8 0 9 0;
#X connect 8 0 9 1;
#X connect 9 0 5 0;
#X connect 9 0 14 0;
#X connect 12 0 11 0;
#X connect 14 0 15 0;
#X connect 15 0 17 0;
#X connect 17 0 16 0;
#X connect 17 0 16 1;
#X connect 17 1 18 0;
