#N canvas 341 38 757 834 12;
#X obj 92 217 loadbang;
#X obj 92 253 delay 500;
#X text 88 185 loading a songs.txt file test;
#X msg 92 284 read songs.txt;
#X obj 92 319 text define songs;
#X obj 92 411 text get songs;
#X obj 294 364 print;
#X obj 293 211 receive fromGUI;
#X obj 293 237 list trim;
#X obj 294 261 route /mySlider;
#X obj 295 307 int;
#N canvas 0 0 450 250 (subpatch) 0;
#X array sample_buffer 63744 float 2;
#X coords 0 1 63744 -1 200 129 1;
#X restore 438 465 graph;
#X obj 438 259 soundfiler;
#X floatatom 438 292 7 0 0 0 - - - 12;
#X listbox 497 292 16 0 0 0 - - - 0;
#X msg 438 173 read -resize cello_f2.aif sample_buffer, f 34;
#X obj 497 322 unpack f f f;
#X obj 438 329 /;
#X floatatom 438 395 7 0 0 0 - - - 16;
#X obj 233 429 phasor~;
#X obj 233 553 tabread4~ sample_buffer, f 22;
#X obj 233 626 *~;
#X obj 288 608 *~ 0.5;
#X obj 233 505 *~;
#X obj 438 358 expr 1 / $f1;
#X obj 233 668 dac~;
#X obj 92 465 print;
#X obj 566 268 print;
#X connect 0 0 1 0;
#X connect 0 0 15 0;
#X connect 1 0 3 0;
#X connect 3 0 4 0;
#X connect 5 0 26 0;
#X connect 7 0 8 0;
#X connect 8 0 9 0;
#X connect 9 0 10 0;
#X connect 9 0 10 1;
#X connect 10 0 5 0;
#X connect 10 0 22 0;
#X connect 12 0 13 0;
#X connect 12 1 14 0;
#X connect 12 1 27 0;
#X connect 13 0 17 0;
#X connect 13 0 23 1;
#X connect 14 0 16 0;
#X connect 15 0 12 0;
#X connect 16 0 17 1;
#X connect 17 0 24 0;
#X connect 18 0 19 0;
#X connect 19 0 23 0;
#X connect 20 0 21 0;
#X connect 21 0 25 0;
#X connect 22 0 21 1;
#X connect 23 0 20 0;
#X connect 24 0 18 0;
