#N canvas 0 38 757 839 12;
#X obj 92 217 loadbang;
#X obj 92 253 delay 500;
#X text 88 185 loading a songs.txt file test;
#X msg 92 284 read songs.txt;
#X obj 92 319 text define songs;
#X obj 92 411 text get songs;
#X obj 92 465 print;
#X obj 294 364 print;
#X obj 293 211 receive fromGUI;
#X obj 293 237 list trim;
#X obj 294 261 route /mySlider;
#X obj 295 307 int;
#X connect 0 0 1 0;
#X connect 1 0 3 0;
#X connect 3 0 4 0;
#X connect 5 0 6 0;
#X connect 8 0 9 0;
#X connect 9 0 10 0;
#X connect 10 0 11 0;
#X connect 10 0 11 1;
#X connect 11 0 5 0;
